<mxfile host="app.diagrams.net" agent="Mozilla/5.0 (Windows NT 10.0; Win64; x64) AppleWebKit/537.36 (KHTML, like Gecko) Chrome/139.0.0.0 Safari/537.36 Edg/139.0.0.0" version="28.1.2">
  <diagram name="Pagina-1" id="XqQZvUsPB6tRAHZpujTU">
    <mxGraphModel dx="1034" dy="1747" grid="1" gridSize="10" guides="1" tooltips="1" connect="1" arrows="1" fold="1" page="1" pageScale="1" pageWidth="827" pageHeight="1169" math="0" shadow="0">
      <root>
        <mxCell id="0" />
        <mxCell id="1" parent="0" />
        <mxCell id="LC1zu8GGbh1QUBive463-1" value="l3: Daily Activity Data" style="rounded=0;whiteSpace=wrap;html=1;fillColor=#fad7ac;strokeColor=#b46504;" parent="1" vertex="1">
          <mxGeometry x="135" y="280" width="130" height="60" as="geometry" />
        </mxCell>
        <mxCell id="LC1zu8GGbh1QUBive463-3" value="" style="endArrow=classic;html=1;rounded=0;exitX=0.5;exitY=1;exitDx=0;exitDy=0;entryX=0.5;entryY=0;entryDx=0;entryDy=0;" parent="1" source="LC1zu8GGbh1QUBive463-45" target="LC1zu8GGbh1QUBive463-4" edge="1">
          <mxGeometry width="50" height="50" relative="1" as="geometry">
            <mxPoint x="385" y="765" as="sourcePoint" />
            <mxPoint x="240" y="855" as="targetPoint" />
          </mxGeometry>
        </mxCell>
        <mxCell id="LC1zu8GGbh1QUBive463-4" value="" style="shape=sumEllipse;perimeter=ellipsePerimeter;whiteSpace=wrap;html=1;backgroundOutline=1;fillColor=#fad9d5;strokeColor=#ae4132;" parent="1" vertex="1">
          <mxGeometry x="372.5" y="810" width="30" height="30" as="geometry" />
        </mxCell>
        <mxCell id="LC1zu8GGbh1QUBive463-5" value="" style="endArrow=none;dashed=1;html=1;dashPattern=1 3;strokeWidth=2;rounded=0;entryX=1;entryY=0.5;entryDx=0;entryDy=0;fillColor=#b0e3e6;strokeColor=#0e8088;" parent="1" target="LC1zu8GGbh1QUBive463-26" edge="1">
          <mxGeometry width="50" height="50" relative="1" as="geometry">
            <mxPoint x="655" y="475" as="sourcePoint" />
            <mxPoint x="479.3800000000001" y="145" as="targetPoint" />
            <Array as="points">
              <mxPoint x="655" y="320" />
              <mxPoint x="655" y="140" />
            </Array>
          </mxGeometry>
        </mxCell>
        <mxCell id="LC1zu8GGbh1QUBive463-6" value="" style="endArrow=none;dashed=1;html=1;dashPattern=1 3;strokeWidth=2;rounded=0;exitX=1;exitY=0.5;exitDx=0;exitDy=0;fillColor=#b0e3e6;strokeColor=#0e8088;" parent="1" source="LC1zu8GGbh1QUBive463-4" edge="1">
          <mxGeometry width="50" height="50" relative="1" as="geometry">
            <mxPoint x="455" y="675" as="sourcePoint" />
            <mxPoint x="655" y="480" as="targetPoint" />
            <Array as="points">
              <mxPoint x="655" y="825" />
            </Array>
          </mxGeometry>
        </mxCell>
        <mxCell id="LC1zu8GGbh1QUBive463-7" value="&amp;lt;&amp;lt;delay&amp;gt;&amp;gt;&lt;br&gt;30 minutes" style="shape=note;whiteSpace=wrap;html=1;backgroundOutline=1;darkOpacity=0.05;size=15;fillColor=#b0e3e6;strokeColor=#0e8088;" parent="1" vertex="1">
          <mxGeometry x="615" y="250" width="90" height="50" as="geometry" />
        </mxCell>
        <mxCell id="LC1zu8GGbh1QUBive463-8" value="&amp;lt;&amp;lt;frequency&amp;gt;&amp;gt;&lt;br&gt;1 / day" style="shape=note;whiteSpace=wrap;html=1;backgroundOutline=1;darkOpacity=0.05;size=15;fillColor=#d5e8d4;strokeColor=#82b366;" parent="1" vertex="1">
          <mxGeometry x="374.38" y="-10" width="165" height="50" as="geometry" />
        </mxCell>
        <mxCell id="LC1zu8GGbh1QUBive463-9" value="" style="endArrow=none;dashed=1;html=1;dashPattern=1 3;strokeWidth=2;rounded=0;entryX=0.5;entryY=1;entryDx=0;entryDy=0;entryPerimeter=0;fillColor=#d5e8d4;strokeColor=#82b366;exitX=1;exitY=0;exitDx=0;exitDy=0;" parent="1" source="LC1zu8GGbh1QUBive463-26" target="LC1zu8GGbh1QUBive463-8" edge="1">
          <mxGeometry width="50" height="50" relative="1" as="geometry">
            <mxPoint x="473" y="120" as="sourcePoint" />
            <mxPoint x="440" y="245" as="targetPoint" />
            <Array as="points" />
          </mxGeometry>
        </mxCell>
        <mxCell id="LC1zu8GGbh1QUBive463-10" value="&amp;lt;&amp;lt;complexity&amp;gt;&amp;gt;&lt;br&gt;low" style="shape=note;whiteSpace=wrap;html=1;backgroundOutline=1;darkOpacity=0.05;size=15;fillColor=#b1ddf0;strokeColor=#10739e;" parent="1" vertex="1">
          <mxGeometry x="135" y="125" width="120" height="50" as="geometry" />
        </mxCell>
        <mxCell id="LC1zu8GGbh1QUBive463-12" value="&amp;lt;&amp;lt;loop&amp;gt;&amp;gt;&lt;br&gt;A3 - Get Daily Activity" style="rounded=1;whiteSpace=wrap;html=1;fillColor=#fad9d5;strokeColor=#ae4132;" parent="1" vertex="1">
          <mxGeometry x="319.38" y="280" width="140" height="60" as="geometry" />
        </mxCell>
        <mxCell id="LC1zu8GGbh1QUBive463-13" value="" style="endArrow=classic;html=1;rounded=0;exitX=1;exitY=0.5;exitDx=0;exitDy=0;entryX=0;entryY=0.5;entryDx=0;entryDy=0;" parent="1" source="LC1zu8GGbh1QUBive463-1" target="LC1zu8GGbh1QUBive463-12" edge="1">
          <mxGeometry width="50" height="50" relative="1" as="geometry">
            <mxPoint x="260" y="310" as="sourcePoint" />
            <mxPoint x="260" y="340" as="targetPoint" />
          </mxGeometry>
        </mxCell>
        <mxCell id="LC1zu8GGbh1QUBive463-14" value="&amp;lt;&amp;lt;datastore&amp;gt;&amp;gt;&lt;div&gt;l3.1: Daily Activity Data&lt;/div&gt;" style="rounded=0;whiteSpace=wrap;html=1;fillColor=#fad7ac;strokeColor=#b46504;" parent="1" vertex="1">
          <mxGeometry x="130" y="190" width="140" height="60" as="geometry" />
        </mxCell>
        <mxCell id="LC1zu8GGbh1QUBive463-15" value="" style="endArrow=classic;html=1;rounded=0;exitX=0.5;exitY=1;exitDx=0;exitDy=0;entryX=0.5;entryY=0;entryDx=0;entryDy=0;" parent="1" source="LC1zu8GGbh1QUBive463-14" target="LC1zu8GGbh1QUBive463-1" edge="1">
          <mxGeometry width="50" height="50" relative="1" as="geometry">
            <mxPoint x="150" y="325" as="sourcePoint" />
            <mxPoint x="195" y="325" as="targetPoint" />
          </mxGeometry>
        </mxCell>
        <mxCell id="LC1zu8GGbh1QUBive463-16" value="" style="strokeWidth=2;html=1;shape=mxgraph.flowchart.start_2;whiteSpace=wrap;fillColor=#f8cecc;strokeColor=#b85450;" parent="1" vertex="1">
          <mxGeometry x="374.38" y="60" width="30.62" height="30" as="geometry" />
        </mxCell>
        <mxCell id="LC1zu8GGbh1QUBive463-17" value="" style="endArrow=classic;html=1;rounded=0;exitX=0.5;exitY=1;exitDx=0;exitDy=0;exitPerimeter=0;entryX=0.5;entryY=0;entryDx=0;entryDy=0;" parent="1" source="LC1zu8GGbh1QUBive463-16" target="LC1zu8GGbh1QUBive463-26" edge="1">
          <mxGeometry width="50" height="50" relative="1" as="geometry">
            <mxPoint x="380" y="110" as="sourcePoint" />
            <mxPoint x="389.3800000000001" y="125" as="targetPoint" />
          </mxGeometry>
        </mxCell>
        <mxCell id="LC1zu8GGbh1QUBive463-34" style="edgeStyle=orthogonalEdgeStyle;rounded=0;orthogonalLoop=1;jettySize=auto;html=1;" parent="1" source="LC1zu8GGbh1QUBive463-19" target="LC1zu8GGbh1QUBive463-30" edge="1">
          <mxGeometry relative="1" as="geometry" />
        </mxCell>
        <mxCell id="LC1zu8GGbh1QUBive463-19" value="l1.2: Patient[]" style="rounded=0;whiteSpace=wrap;html=1;fillColor=#fad7ac;strokeColor=#b46504;" parent="1" vertex="1">
          <mxGeometry x="480" y="190" width="130" height="60" as="geometry" />
        </mxCell>
        <mxCell id="LC1zu8GGbh1QUBive463-20" value="" style="endArrow=classic;html=1;rounded=0;exitX=0.5;exitY=1;exitDx=0;exitDy=0;entryX=0.5;entryY=0;entryDx=0;entryDy=0;" parent="1" source="LC1zu8GGbh1QUBive463-26" edge="1">
          <mxGeometry width="50" height="50" relative="1" as="geometry">
            <mxPoint x="389.3800000000001" y="165" as="sourcePoint" />
            <mxPoint x="390" y="190" as="targetPoint" />
          </mxGeometry>
        </mxCell>
        <mxCell id="LC1zu8GGbh1QUBive463-21" value="" style="endArrow=classic;html=1;rounded=0;exitX=0.5;exitY=1;exitDx=0;exitDy=0;entryX=0.5;entryY=0;entryDx=0;entryDy=0;" parent="1" target="LC1zu8GGbh1QUBive463-12" edge="1">
          <mxGeometry width="50" height="50" relative="1" as="geometry">
            <mxPoint x="390" y="250" as="sourcePoint" />
            <mxPoint x="495" y="310" as="targetPoint" />
          </mxGeometry>
        </mxCell>
        <mxCell id="LC1zu8GGbh1QUBive463-49" style="edgeStyle=orthogonalEdgeStyle;rounded=0;orthogonalLoop=1;jettySize=auto;html=1;entryX=0.5;entryY=0;entryDx=0;entryDy=0;exitX=0;exitY=0;exitDx=80;exitDy=40;exitPerimeter=0;" parent="1" source="LC1zu8GGbh1QUBive463-23" target="LC1zu8GGbh1QUBive463-45" edge="1">
          <mxGeometry relative="1" as="geometry" />
        </mxCell>
        <mxCell id="LC1zu8GGbh1QUBive463-23" value="&amp;lt;&amp;lt;loop&amp;gt;&amp;gt;&lt;br&gt;A6 - Start Threshold Alert" style="html=1;shape=mxgraph.infographic.ribbonSimple;notch1=0;notch2=20;align=center;verticalAlign=middle;fontSize=14;fontStyle=0;fillColor=#f8cecc;whiteSpace=wrap;strokeColor=#b85450;" parent="1" vertex="1">
          <mxGeometry x="310" y="700" width="180" height="40" as="geometry" />
        </mxCell>
        <mxCell id="LC1zu8GGbh1QUBive463-24" value="" style="endArrow=classic;html=1;rounded=0;exitX=0.5;exitY=1;exitDx=0;exitDy=0;entryX=0.5;entryY=0;entryDx=0;entryDy=0;" parent="1" source="LC1zu8GGbh1QUBive463-12" target="LC1zu8GGbh1QUBive463-35" edge="1">
          <mxGeometry width="50" height="50" relative="1" as="geometry">
            <mxPoint x="495" y="440" as="sourcePoint" />
            <mxPoint x="390" y="440" as="targetPoint" />
          </mxGeometry>
        </mxCell>
        <mxCell id="LC1zu8GGbh1QUBive463-25" value="" style="endArrow=classic;html=1;rounded=0;exitX=0.5;exitY=1;exitDx=0;exitDy=0;entryX=0.5;entryY=0;entryDx=0;entryDy=0;" parent="1" target="LC1zu8GGbh1QUBive463-42" edge="1">
          <mxGeometry width="50" height="50" relative="1" as="geometry">
            <mxPoint x="390" y="500" as="sourcePoint" />
            <mxPoint x="390" y="550" as="targetPoint" />
          </mxGeometry>
        </mxCell>
        <mxCell id="LC1zu8GGbh1QUBive463-26" value="A1 - Verify Exercise Compliance" style="rounded=1;whiteSpace=wrap;html=1;fillColor=#fad9d5;strokeColor=#ae4132;" parent="1" vertex="1">
          <mxGeometry x="320" y="110" width="140" height="60" as="geometry" />
        </mxCell>
        <mxCell id="LC1zu8GGbh1QUBive463-27" value="" style="shape=collate;whiteSpace=wrap;html=1;fillColor=#f8cecc;strokeColor=#b85450;" parent="1" vertex="1">
          <mxGeometry x="285" y="10" width="40" height="40" as="geometry" />
        </mxCell>
        <mxCell id="LC1zu8GGbh1QUBive463-28" value="" style="endArrow=classic;html=1;rounded=0;exitX=0.5;exitY=1;exitDx=0;exitDy=0;entryX=0;entryY=0.5;entryDx=0;entryDy=0;entryPerimeter=0;" parent="1" source="LC1zu8GGbh1QUBive463-27" target="LC1zu8GGbh1QUBive463-16" edge="1">
          <mxGeometry width="50" height="50" relative="1" as="geometry">
            <mxPoint x="290" y="70" as="sourcePoint" />
            <mxPoint x="290" y="90" as="targetPoint" />
            <Array as="points">
              <mxPoint x="305" y="75" />
            </Array>
          </mxGeometry>
        </mxCell>
        <mxCell id="LC1zu8GGbh1QUBive463-29" value="Cron: every day at 00:00" style="text;html=1;align=center;verticalAlign=middle;resizable=0;points=[];autosize=1;strokeColor=none;fillColor=none;" parent="1" vertex="1">
          <mxGeometry x="135" width="150" height="30" as="geometry" />
        </mxCell>
        <mxCell id="LC1zu8GGbh1QUBive463-30" value="A2 - Get all Patient(s)" style="rounded=1;whiteSpace=wrap;html=1;fillColor=#fad9d5;strokeColor=#ae4132;" parent="1" vertex="1">
          <mxGeometry x="320" y="190" width="140" height="60" as="geometry" />
        </mxCell>
        <mxCell id="LC1zu8GGbh1QUBive463-31" value="&amp;lt;&amp;lt;loop&amp;gt;&amp;gt;&lt;br&gt;A5 - Verify Activity" style="rounded=1;whiteSpace=wrap;html=1;fillColor=#fad9d5;strokeColor=#ae4132;" parent="1" vertex="1">
          <mxGeometry x="319.38" y="460" width="140" height="60" as="geometry" />
        </mxCell>
        <mxCell id="LC1zu8GGbh1QUBive463-33" style="edgeStyle=orthogonalEdgeStyle;rounded=0;orthogonalLoop=1;jettySize=auto;html=1;entryX=0.5;entryY=1;entryDx=0;entryDy=0;" parent="1" source="LC1zu8GGbh1QUBive463-32" target="LC1zu8GGbh1QUBive463-19" edge="1">
          <mxGeometry relative="1" as="geometry" />
        </mxCell>
        <mxCell id="LC1zu8GGbh1QUBive463-32" value="&amp;lt;&amp;lt;datastore&amp;gt;&amp;gt;&lt;div&gt;l2.1: Patient&lt;/div&gt;" style="rounded=0;whiteSpace=wrap;html=1;fillColor=#fad7ac;strokeColor=#b46504;" parent="1" vertex="1">
          <mxGeometry x="475" y="280" width="140" height="60" as="geometry" />
        </mxCell>
        <mxCell id="LC1zu8GGbh1QUBive463-36" style="edgeStyle=orthogonalEdgeStyle;rounded=0;orthogonalLoop=1;jettySize=auto;html=1;entryX=0.5;entryY=0;entryDx=0;entryDy=0;" parent="1" source="LC1zu8GGbh1QUBive463-35" target="LC1zu8GGbh1QUBive463-31" edge="1">
          <mxGeometry relative="1" as="geometry" />
        </mxCell>
        <mxCell id="LC1zu8GGbh1QUBive463-35" value="&amp;lt;&amp;lt;loop&amp;gt;&amp;gt;&lt;br&gt;A4 - Get Therapeutic Plan" style="rounded=1;whiteSpace=wrap;html=1;fillColor=#fad9d5;strokeColor=#ae4132;" parent="1" vertex="1">
          <mxGeometry x="319.69" y="360" width="140" height="60" as="geometry" />
        </mxCell>
        <mxCell id="LC1zu8GGbh1QUBive463-40" style="edgeStyle=orthogonalEdgeStyle;rounded=0;orthogonalLoop=1;jettySize=auto;html=1;entryX=0;entryY=0.5;entryDx=0;entryDy=0;" parent="1" source="LC1zu8GGbh1QUBive463-37" target="LC1zu8GGbh1QUBive463-35" edge="1">
          <mxGeometry relative="1" as="geometry" />
        </mxCell>
        <mxCell id="LC1zu8GGbh1QUBive463-37" value="l4: Therapeutic Plan" style="rounded=0;whiteSpace=wrap;html=1;fillColor=#fad7ac;strokeColor=#b46504;" parent="1" vertex="1">
          <mxGeometry x="135" y="360" width="130" height="60" as="geometry" />
        </mxCell>
        <mxCell id="LC1zu8GGbh1QUBive463-38" value="&amp;lt;&amp;lt;datastore&amp;gt;&amp;gt;&lt;div&gt;l4.1: Therapeutic Plan&lt;/div&gt;" style="rounded=0;whiteSpace=wrap;html=1;fillColor=#fad7ac;strokeColor=#b46504;" parent="1" vertex="1">
          <mxGeometry x="130" y="460" width="140" height="60" as="geometry" />
        </mxCell>
        <mxCell id="LC1zu8GGbh1QUBive463-39" value="" style="endArrow=classic;html=1;rounded=0;exitX=0.5;exitY=0;exitDx=0;exitDy=0;entryX=0.5;entryY=1;entryDx=0;entryDy=0;" parent="1" source="LC1zu8GGbh1QUBive463-38" target="LC1zu8GGbh1QUBive463-37" edge="1">
          <mxGeometry width="50" height="50" relative="1" as="geometry">
            <mxPoint x="210" y="575" as="sourcePoint" />
            <mxPoint x="255" y="575" as="targetPoint" />
          </mxGeometry>
        </mxCell>
        <mxCell id="LC1zu8GGbh1QUBive463-50" style="edgeStyle=orthogonalEdgeStyle;rounded=0;orthogonalLoop=1;jettySize=auto;html=1;entryX=1;entryY=0.5;entryDx=0;entryDy=0;" parent="1" source="LC1zu8GGbh1QUBive463-42" target="LC1zu8GGbh1QUBive463-45" edge="1">
          <mxGeometry relative="1" as="geometry">
            <Array as="points">
              <mxPoint x="520" y="565" />
              <mxPoint x="520" y="778" />
            </Array>
          </mxGeometry>
        </mxCell>
        <mxCell id="LC1zu8GGbh1QUBive463-42" value="Activity Not Compliant" style="shape=hexagon;perimeter=hexagonPerimeter2;whiteSpace=wrap;html=1;fixedSize=1;fillColor=#f8cecc;strokeColor=#b85450;" parent="1" vertex="1">
          <mxGeometry x="280" y="550" width="220" height="30" as="geometry" />
        </mxCell>
        <mxCell id="LC1zu8GGbh1QUBive463-44" style="edgeStyle=orthogonalEdgeStyle;rounded=0;orthogonalLoop=1;jettySize=auto;html=1;entryX=0.5;entryY=0;entryDx=0;entryDy=0;" parent="1" source="LC1zu8GGbh1QUBive463-42" target="VdyysPjtNYTSRRV6AOLi-1" edge="1">
          <mxGeometry relative="1" as="geometry" />
        </mxCell>
        <mxCell id="LC1zu8GGbh1QUBive463-45" value="" style="rhombus;whiteSpace=wrap;html=1;fillColor=#f8cecc;strokeColor=#b85450;" parent="1" vertex="1">
          <mxGeometry x="370" y="760" width="35" height="35" as="geometry" />
        </mxCell>
        <mxCell id="LC1zu8GGbh1QUBive463-51" value="No" style="text;html=1;align=center;verticalAlign=middle;resizable=0;points=[];autosize=1;strokeColor=none;fillColor=none;" parent="1" vertex="1">
          <mxGeometry x="500" y="538" width="40" height="30" as="geometry" />
        </mxCell>
        <mxCell id="LC1zu8GGbh1QUBive463-52" value="Yes" style="text;html=1;align=center;verticalAlign=middle;resizable=0;points=[];autosize=1;strokeColor=none;fillColor=none;" parent="1" vertex="1">
          <mxGeometry x="390" y="578" width="40" height="30" as="geometry" />
        </mxCell>
        <mxCell id="VdyysPjtNYTSRRV6AOLi-1" value="l5: Threshold" style="rounded=0;whiteSpace=wrap;html=1;fillColor=#fad7ac;strokeColor=#b46504;" parent="1" vertex="1">
          <mxGeometry x="324.38" y="620" width="130" height="60" as="geometry" />
        </mxCell>
        <mxCell id="VdyysPjtNYTSRRV6AOLi-3" style="edgeStyle=orthogonalEdgeStyle;rounded=0;orthogonalLoop=1;jettySize=auto;html=1;entryX=0;entryY=0;entryDx=80;entryDy=0;entryPerimeter=0;" parent="1" source="VdyysPjtNYTSRRV6AOLi-1" target="LC1zu8GGbh1QUBive463-23" edge="1">
          <mxGeometry relative="1" as="geometry" />
        </mxCell>
      </root>
    </mxGraphModel>
  </diagram>
</mxfile>
